#!OML:ASF F:\VICON\USERDATA\INSTALL\rory3\rory3.ASF
:FULLY-SPECIFIED
:DEGREES
71
root 0.6361255056836533 17.814680816503888 44.917043010639 -4.540603006127455 -0.23826421892055755 -0.34207961682963406
lfemur -4.17681894651593 -3.092655675641914 -24.561185950666406
ltibia 35.06902528498288
lfoot -7.880548371371652 -0.02388891564578044
ltoes -7.4881042019977935
rfemur -21.165762634872344 -2.4715198324188563 23.166668618431814
rtibia 47.558765178420686
rfoot -4.760082258106235 -8.301644117576384
rtoes 2.7405079344785617
lowerback 11.539987583623692 0.642769001424083 -0.49545535414466113
upperback 0.2580591298803885 0.9497256624895111 1.2472591576842817
thorax -6.028112920250323 0.565508708163427 1.3524296150697912
lowerneck -16.673567665867616 -3.2066035304837337 -2.235148772136881
upperneck 20.86557972174414 -4.465672718333772 2.4248644615712456
head 9.376520730143856 -2.0712061004016333 0.4601052734755334
lclavicle 3.007644532117269e-16 5.650158596830969e-17
lhumerus -32.36803643954371 3.6498234607900777 81.16620647870796
lradius 24.984643357693468
lwrist 8.024556054744055
lhand -29.112440268572406 20.050792845766384
lfingers 7.125020000000001
lthumb -2.273592124305068 50.5194914607552
rclavicle 2.993985447165735e-16 5.552075401278061e-17
rhumerus -29.65714768470173 -20.929034474615936 -78.16021671095186
rradius 29.30108778393969
rwrist 2.594475686648978
rhand -18.023420051714083 23.246180781055873
rfingers 7.125020000000001
rthumb 7.949162233059354 -7.0296423551421165
72
root 0.6063062490646495 17.78763236195093 45.14540167531528 -4.114195058291816 0.328629973566963 -0.009133439858766135
lfemur -1.9248061022143865 -3.2550913266129684 -25.524520221002504
ltibia 33.980897860583255
lfoot -7.696675642862242 -0.4359694876001936
ltoes -7.970076856312871
rfemur -23.520340967385593 -1.9161895063188865 22.56890090653662
rtibia 45.21988054855654
rfoot -5.624500032380662 -8.5245015203886
rtoes 2.1158629027484777
lowerback 11.600355488684063 0.364129684249722 -0.9901772526960027
upperback 0.2975256435220062 0.46800358485057847 1.292557242619702
thorax -5.984303697969364 0.43759892640959286 1.8253375778213732
lowerneck -16.699774107122604 -3.1862724020734445 -2.2180048782081117
upperneck 20.816124573822144 -4.457718051723811 2.472101203106903
head 9.37974697043383 -2.049299789057216 0.4802735431922414
lclavicle 3.0076445321132654e-16 5.650158596802222e-17
lhumerus -30.969668883278146 2.165963146327278 81.35627551003986
lradius 25.162389874945806
lwrist 8.108764706630845
lhand -29.160396412935256 19.824194263747557
lfingers 7.125020000000001
lthumb -2.242525644449173 50.577896707416514
rclavicle 2.993985447165461e-16 5.552075401276096e-17
rhumerus -30.74173806667368 -20.941377473931276 -77.89078362276044
rradius 29.071131669172555
rwrist 2.582552701548817
rhand -18.050432918212085 23.200808617190237
rfingers 7.125020000000001
rthumb 7.96071548561345 -7.011878922784966
73
root 0.5826128167062707 17.764598143435638 46.15874201240039 -3.5695867644552255 0.909247770341567 0.37942488762018334
lfemur 0.8014574871608753 -3.1117505092543833 -26.07947904286723
ltibia 32.69753909657952
lfoot -7.365267624081552 -0.9155345548169902
ltoes -7.975252015363951
rfemur -24.99985077485772 -0.9898605541690189 22.002251219268505
rtibia 42.55207182022951
rfoot -6.3416015200066855 -8.84262328196098
rtoes 1.9262126176467804
lowerback 11.590900610285331 0.10725951762838187 -1.492535698941304
upperback 0.323896696744924 0.02299255010998541 1.335074398410101
thorax -5.953731871626869 0.2653255609620457 2.0744859927317556
lowerneck -16.66068698611102 -3.144700251808253 -2.1577370342396387
upperneck 20.729847505144257 -4.4690031830527435 2.468217066641184
head 9.368969267359539 -2.0364019921361827 0.4810315588409984
lclavicle 3.007644532110129e-16 5.6501585967797e-17
lhumerus -29.451123255830147 0.8511496291249823 81.45191564244183
lradius 25.31411011721699
lwrist 8.144233732630186
lhand -29.017277438308565 20.30954501222491
lfingers 7.125020000000001
lthumb -2.203686077906436 50.71188683608334
rclavicle 2.993985447165095e-16 5.552075401273464e-17
rhumerus -31.7444169046642 -20.860746868082227 -77.64875195645753
rradius 28.77112109869328
rwrist 2.623531133845746
rhand -18.054663783189635 23.2059442908869
rfingers 7.125020000000001
rthumb 7.967370588271689 -6.9746934840262576
74
root 0.5411429673421395 17.724345981506143 46.286893662889604 -3.107728379523692 1.289827170208619 0.5639177489980418
lfemur 3.8808845716184655 -2.752749485602203 -26.052409674253532
ltibia 31.103527172244476
lfoot -7.32091929580952 -1.4982819386992288
ltoes -7.985549277479558
rfemur -25.700062093283332 0.15812947429835944 21.496605979747137
rtibia 40.110081778846386
rfoot -6.648885146751921 -9.107832021793897
rtoes 2.3126612484285927
lowerback 11.511413800415115 -0.11630815406963693 -1.9418574262910469
upperback 0.3319374217660476 -0.39686162188057605 1.3703172033871738
thorax -5.894356743227197 0.12963064595487073 2.4153563085734913
lowerneck -16.659396420435602 -3.1308720576162776 -2.1190831712533558
upperneck 20.653189270254217 -4.46682417969548 2.4785439522944257
head 9.368939356296114 -2.022061073145346 0.491117253995062
lclavicle 3.0076445321084376e-16 5.650158596767555e-17
lhumerus -27.871115859786343 -0.3095365451973726 81.47959540759376
lradius 25.38838192548837
lwrist 8.282288365321657
lhand -29.07687340156611 20.059156319664524
lfingers 7.125020000000001
lthumb -2.2496502023261558 50.58131658450095
rclavicle 2.9939854471641097e-16 5.552075401266391e-17
rhumerus -32.54404180707611 -20.828517017879943 -77.30454017173457
rradius 28.394933664457746
rwrist 2.866686482961947
rhand -18.079161868291727 23.20472144552243
rfingers 7.125020000000001
rthumb 7.936460522526849 -7.0114710796051325
75
root 0.4983567675100313 17.675029724263688 47.11344824648744 -2.738235812263627 1.607332340703068 0.746857379614529
lfemur 7.2059365809346465 -2.2785387149721066 -25.99209244499787
ltibia 29.18832019339223
lfoot -6.731593333616175 -1.868566802510611
ltoes -8.335406137032578
rfemur -26.1221790943665 1.10166328053434 21.096959080631557
rtibia 38.15429022722638
rfoot -6.5276728358903195 -9.331306341901122
rtoes 2.857821221462964
lowerback 11.407808408363598 -0.2774746075771941 -2.2441168321957425
upperback 0.33678901608060313 -0.6785338847723028 1.4274979411209756
thorax -5.830179423469648 0.02408599801163608 2.7202961283579525
lowerneck -16.628579404243794 -3.115767630626427 -2.0708359173118773
upperneck 20.575099977306397 -4.474395999399667 2.446721849317753
head 9.369998568126558 -2.014408586416182 0.4985385303508146
lclavicle 3.0076445321070857e-16 5.650158596757847e-17
lhumerus -26.346244483265487 -1.327928269043905 81.45988558847505
lradius 25.387347089770103
lwrist 8.245201022943004
lhand -28.940021345128514 20.511894864372675
lfingers 7.125020000000001
lthumb -2.3006639494645933 50.4843258028825
rclavicle 2.9939854471637074e-16 5.552075401263502e-17
rhumerus -33.27691276751083 -21.125866715754494 -76.8689580128923
rradius 27.99708726448252
rwrist 3.2582930066638434
rhand -18.06818320719929 23.272726678138344
rfingers 7.125020000000001
rthumb 7.899859870437798 -7.082628259849656
76
root 0.43434020346853386 17.613800569233135 47.17592461323595 -2.5925931819531343 1.6704785284895474 0.6618430322500806
lfemur 10.432136254384403 -2.146509824390247 -26.035866435438443
ltibia 27.421687852985457
lfoot -6.136038821608819 -2.536084780291043
ltoes -8.931087400092606
rfemur -26.116500785790834 1.8108705016651914 21.079783872557687
rtibia 36.675187591136904
rfoot -6.299550318482132 -9.49383154486111
rtoes 2.973116079646722
lowerback 11.265941017567428 -0.41978191038596224 -2.5223418893452534
upperback 0.3173035609598644 -0.9333927273310441 1.4746486723208867
thorax -5.7793402876925635 -0.09312157718307881 2.8988356931651627
lowerneck -16.60223799254542 -3.1264005226043556 -2.0374797568836436
upperneck 20.536874899480825 -4.455759448482842 2.4542261516176493
head 9.364800029110873 -2.012317721000135 0.49700851667674345
lclavicle 3.007644532109535e-16 5.650158596775435e-17
lhumerus -24.959638746162653 -2.1094416356458123 81.40718514983911
lradius 25.291298410465032
lwrist 8.10064702231088
lhand -29.024688193428236 20.18455722978199
lfingers 7.125020000000001
lthumb -2.373823542811332 50.30934463129367
rclavicle 2.993985447163083e-16 5.552075401259021e-17
rhumerus -34.0188938193194 -21.751880364776003 -76.33315838926366
rradius 27.64056250714045
rwrist 3.75459900739565
rhand -18.069172111592565 23.29814181819184
rfingers 7.125020000000001
rthumb 7.889422063628407 -7.123566796040339
77
root 0.3755319992968604 17.57072432467119 47.818224686577544 -2.577757693130346 1.6872663918382633 0.47618876013193967
lfemur 13.002440348071765 -2.648616368461585 -25.968538258487335
ltibia 26.24923762088587
lfoot -5.448259943532606 -3.1246094011791596
ltoes -9.316267119168222
rfemur -26.029398806539195 2.1499676419422173 21.310008307912053
rtibia 35.97604110592142
rfoot -6.323717906351517 -9.507135063606379
rtoes 2.3922466333980714
lowerback 11.121218500749523 -0.5205316385399488 -2.6545836942036187
upperback 0.28977344829020873 -1.1317333788152344 1.528989628379892
thorax -5.719776781803957 -0.15336892515519554 3.106025861498583
lowerneck -16.561578398613687 -3.129281101298794 -1.9845526640476103
upperneck 20.520860671918392 -4.4242000563812525 2.4443602806628
head 9.33838644012682 -2.0276512972180964 0.47430040931911216
lclavicle 3.0076445321088325e-16 5.650158596770387e-17
lhumerus -23.888519275122654 -2.671514139664097 81.31603318208514
lradius 25.22482521946102
lwrist 7.868084813052603
lhand -28.924569115117357 20.551383941694954
lfingers 7.125020000000001
lthumb -2.3913994030962087 50.32706253538426
rclavicle 2.9939854471629126e-16 5.552075401257797e-17
rhumerus -34.81056843362368 -22.605274893281383 -75.69591810983307
rradius 27.413892077961595
rwrist 4.150310639200217
rhand -18.052412865816382 23.33666027651751
rfingers 7.125020000000001
rthumb 7.9218146581677615 -7.067225285972106
78
root 0.3227678479319945 17.554935458871725 48.27383120699646 -2.686317165835635 1.6221249566805258 0.04042234503406972
lfemur 14.395740932386428 -3.4435373955969437 -25.670559804990944
ltibia 26.365701692647566
lfoot -5.707247571070038 -4.292283339194724
ltoes -8.546487080933776
rfemur -25.178589213621134 2.5139199689464826 22.032680948432876
rtibia 36.21406768203207
rfoot -6.312851610669285 -9.222406161372907
rtoes 2.0947926617834987
lowerback 10.956790256750141 -0.6205985357823932 -2.732733704648889
upperback 0.27079480775062836 -1.1721703929338312 1.6349584725236654
thorax -5.679602285672068 -0.19916461057059706 3.1818313524052213
lowerneck -16.55540542896193 -3.1505001582440526 -1.952147507856424
upperneck 20.53823288504349 -4.365728318216941 2.437749939699448
head 9.339839775316763 -2.0284234227739413 0.47116661418835015
lclavicle 3.0076445321096604e-16 5.650158596776332e-17
lhumerus -23.12236333127265 -2.9180608338168637 81.27974906787102
lradius 25.193788163493437
lwrist 7.526476113221039
lhand -29.074792102723784 20.071429807539573
lfingers 7.125020000000001
lthumb -2.425871140627309 50.24820079090314
rclavicle 2.993985447162795e-16 5.55207540125695e-17
rhumerus -35.6950423664201 -23.654568032849795 -74.93287280845176
rradius 27.28768802899199
rwrist 4.537363057592186
rhand -18.059346667369308 23.325791267819916
rfingers 7.125020000000001
rthumb 7.935693871705231 -7.041027844885561
